<svg xmlns="http://www.w3.org/2000/svg" width="75.892" height="28.798" viewBox="0 0 75.892 28.798">
  <g id="Groupe_2563" data-name="Groupe 2563" transform="translate(-22.2 -9.203)">
    <g id="Groupe_2292" data-name="Groupe 2292" transform="translate(43.761 11.329)">
      <path id="Tracé_1649" data-name="Tracé 1649" d="M9.659-14.6H6.991v4.286a3.1,3.1,0,0,0-2.6-1.151C2-11.467.5-9.616.5-7.2S2-2.912,4.39-2.912a3.256,3.256,0,0,0,2.7-1.251l.05-.017L7.124-3.1H9.659ZM7.074-7.232A1.929,1.929,0,0,1,5.157-5.1,1.941,1.941,0,0,1,3.222-7.232,1.941,1.941,0,0,1,5.157-9.366,1.929,1.929,0,0,1,7.074-7.232Zm7.3-6.42a1.387,1.387,0,0,0-1.518-1.384,1.387,1.387,0,0,0-1.518,1.384,1.378,1.378,0,0,0,1.518,1.384A1.378,1.378,0,0,0,14.379-13.652ZM14.2-11.317H11.527V-3.1H14.2Zm8.071,5.687A2.3,2.3,0,0,0,21.6-7.3a3.251,3.251,0,0,0-1.067-.617c-.35-.133-.6-.217-1.167-.384s-1.2-.367-1.2-.8.35-.6.984-.6a4.032,4.032,0,0,1,2.068.8l.867-1.568a4.75,4.75,0,0,0-3.152-1.017c-1.718,0-3.118.984-3.118,2.585a2.207,2.207,0,0,0,1.4,2.151,8.6,8.6,0,0,0,1.167.384c.3.1,1.5.367,1.5.9s-.467.7-1.134.7a4.487,4.487,0,0,1-2.435-1l-1,1.584a5.046,5.046,0,0,0,3.469,1.267A3.971,3.971,0,0,0,21.3-3.63,2.482,2.482,0,0,0,22.266-5.631Zm7.6-.283a3.25,3.25,0,0,1-2.085.8,1.957,1.957,0,0,1-2.068-2.118,1.965,1.965,0,0,1,2.034-2.085,3.381,3.381,0,0,1,2.118.734l.584-2.018a4.677,4.677,0,0,0-3.052-.867,4.186,4.186,0,0,0-4.369,4.286,4.156,4.156,0,0,0,4.336,4.269A4.323,4.323,0,0,0,30.5-3.9Zm9.572-5.4H36.775v4.369c0,1.084-.434,1.834-1.384,1.834s-1.217-.65-1.217-1.6v-4.6H31.5v4.969a4.037,4.037,0,0,0,.6,2.468,2.789,2.789,0,0,0,2.351.967,2.992,2.992,0,0,0,2.4-1.117l.017.934h2.568Zm8.038,5.687A2.3,2.3,0,0,0,46.814-7.3a3.251,3.251,0,0,0-1.067-.617c-.35-.133-.6-.217-1.167-.384s-1.2-.367-1.2-.8.35-.6.984-.6a4.032,4.032,0,0,1,2.068.8l.867-1.568a4.75,4.75,0,0,0-3.152-1.017c-1.718,0-3.118.984-3.118,2.585a2.207,2.207,0,0,0,1.4,2.151,8.6,8.6,0,0,0,1.167.384c.3.1,1.5.367,1.5.9s-.467.7-1.134.7a4.487,4.487,0,0,1-2.435-1l-1,1.584A5.046,5.046,0,0,0,44-2.912a3.971,3.971,0,0,0,2.518-.717A2.482,2.482,0,0,0,47.481-5.631Zm7.354,0A2.3,2.3,0,0,0,54.168-7.3,3.252,3.252,0,0,0,53.1-7.915c-.35-.133-.6-.217-1.167-.384s-1.2-.367-1.2-.8.35-.6.984-.6a4.032,4.032,0,0,1,2.068.8l.867-1.568A4.75,4.75,0,0,0,51.5-11.484c-1.718,0-3.118.984-3.118,2.585a2.207,2.207,0,0,0,1.4,2.151,8.6,8.6,0,0,0,1.167.384c.3.1,1.5.367,1.5.9s-.467.7-1.134.7a4.487,4.487,0,0,1-2.435-1l-1,1.584a5.046,5.046,0,0,0,3.469,1.267,3.971,3.971,0,0,0,2.518-.717A2.482,2.482,0,0,0,54.835-5.631Z" transform="translate(-0.504 15.036)" fill="#007381"/>
      <path id="Tracé_1650" data-name="Tracé 1650" d="M6.574-4.275,8.263-2.37v.064H7.4L6.167-3.767A5.712,5.712,0,0,1,4.744-2.541a3.254,3.254,0,0,1-1.626.388A2.5,2.5,0,0,1,1.326-2.8,2.265,2.265,0,0,1,.64-4.53a2.261,2.261,0,0,1,.737-1.728,6.491,6.491,0,0,1,.737-.584q.368-.229.94-.546l-.28-.33-.3-.394A2.107,2.107,0,0,1,2-9.485a1.588,1.588,0,0,1,.534-1.232,2.022,2.022,0,0,1,1.41-.483,1.956,1.956,0,0,1,1.385.483,1.606,1.606,0,0,1,.521,1.232q0,1.169-1.817,2.223L6.167-4.746a5.824,5.824,0,0,0,.572-.877,6.565,6.565,0,0,0,.508-1l.635.191a8.1,8.1,0,0,1-.546,1.042A8.847,8.847,0,0,1,6.574-4.275ZM5.15-9.485a1.092,1.092,0,0,0-.324-.845,1.253,1.253,0,0,0-.883-.3,1.265,1.265,0,0,0-.9.324,1.145,1.145,0,0,0-.349.883,1.716,1.716,0,0,0,.241.839q.038.051.083.121t.076.114a.319.319,0,0,1,.044.083l.267.33.216.229.191-.114a4.65,4.65,0,0,0,.839-.61A1.324,1.324,0,0,0,5.15-9.485Zm.6,5.247L3.461-6.944l-.445.254a8.8,8.8,0,0,0-.8.521,2.293,2.293,0,0,0-.6.68,1.721,1.721,0,0,0-.254.9A1.784,1.784,0,0,0,1.9-3.259a1.936,1.936,0,0,0,1.372.508,2.491,2.491,0,0,0,1.423-.457A4.368,4.368,0,0,0,5.748-4.237Zm8.859.6.226-.256.453.528a3.558,3.558,0,0,1-2.867,1.207A3.256,3.256,0,0,1,9.99-3.181a3.646,3.646,0,0,1-1-2.625,3.49,3.49,0,0,1,1.041-2.6,3.42,3.42,0,0,1,2.459-1.026,3.279,3.279,0,0,1,2.761,1.207l-.5.528a2.9,2.9,0,0,0-2.293-1.026,2.563,2.563,0,0,0-1.871.8,2.825,2.825,0,0,0-.769,2.067,3.122,3.122,0,0,0,.739,2.158,2.464,2.464,0,0,0,1.931.83,3.267,3.267,0,0,0,1.252-.241A2.481,2.481,0,0,0,14.607-3.634Zm6.835-2.821v4.149h-.8v-.981a3,3,0,0,1-2.369,1.132,2.361,2.361,0,0,1-1.675-.6,1.984,1.984,0,0,1-.664-1.509,1.791,1.791,0,0,1,.717-1.5,3.629,3.629,0,0,1,2.075-.611l1.916-.075v-.377A1.832,1.832,0,0,0,20.1-8.243a2,2,0,0,0-1.418-.505,3.543,3.543,0,0,0-1.282.226,2.837,2.837,0,0,0-.785.377l-.3-.573a4.152,4.152,0,0,1,2.339-.709,2.762,2.762,0,0,1,2.112.785A3.166,3.166,0,0,1,21.441-6.455Zm-.8,2.339V-5.852l-1.992.121q-1.931.121-1.931,1.464a1.312,1.312,0,0,0,.46,1.026,1.81,1.81,0,0,0,1.245.407,2.379,2.379,0,0,0,1.3-.362A2.873,2.873,0,0,0,20.642-4.117Zm6.141-5.22.091.015-.075.769a2.37,2.37,0,0,0-.754-.121,1.463,1.463,0,0,0-1.207.634,3.283,3.283,0,0,0-.5,1.961v3.772h-.785v-7h.785v1.313a1.936,1.936,0,0,1,.671-1.049,1.75,1.75,0,0,1,1.109-.385A1.95,1.95,0,0,1,26.783-9.337Zm7.106,3.184-.045.528H28.156A3.079,3.079,0,0,0,28.9-3.6a2.4,2.4,0,0,0,1.848.739,3.875,3.875,0,0,0,1.275-.211,2.879,2.879,0,0,0,.913-.468l.272-.226.377.558a2.163,2.163,0,0,1-.438.362,4.223,4.223,0,0,1-2.474.694,3.128,3.128,0,0,1-2.429-1.011,3.77,3.77,0,0,1-.92-2.64,3.6,3.6,0,0,1,.981-2.6,3.239,3.239,0,0,1,2.414-1.026,2.989,2.989,0,0,1,2.263.935A3.229,3.229,0,0,1,33.889-6.153Zm-5.7-.151h4.9a2.683,2.683,0,0,0-.226-1.049,2.366,2.366,0,0,0-.807-.966,2.256,2.256,0,0,0-1.381-.43,2.193,2.193,0,0,0-1.811.785A2.8,2.8,0,0,0,28.186-6.3Z" transform="translate(0.01 27.178)" fill="#007381"/>
    </g>
    <g id="Groupe_2293" data-name="Groupe 2293" transform="translate(23 9.203)">
      <path id="Tracé_1647" data-name="Tracé 1647" d="M1823.6-344.621a2.607,2.607,0,0,0-2.6,2.6,2.607,2.607,0,0,0,2.6,2.6,9.2,9.2,0,0,1,9.193,9.192,9.2,9.2,0,0,1-9.193,9.192,2.607,2.607,0,0,0-2.6,2.6,2.607,2.607,0,0,0,2.6,2.6,14.415,14.415,0,0,0,14.4-14.4A14.415,14.415,0,0,0,1823.6-344.621Z" transform="translate(-1820.994 344.621)" fill="#007381"/>
      <path id="Tracé_1648" data-name="Tracé 1648" d="M1825.871-316.624a4.593,4.593,0,0,0,4.589-4.589,4.594,4.594,0,0,0-4.589-4.589,4.594,4.594,0,0,0-4.589,4.589A4.594,4.594,0,0,0,1825.871-316.624Z" transform="translate(-1822.082 335.611)" fill="#fcc9a1"/>
    </g>
  </g>
</svg>
